<svg xmlns="http://www.w3.org/2000/svg" width="300" height="216" viewBox="0 0 300 216"><path fill="#F7941E" d="M283.44 164.998c-25.693-4.846-47.994-17.43-61.844-35.366-8.19-10.596-12.663-22.156-13.248-33.885-.217-3.243 2.38-4.472 4.912-4.447 44.368.348 73.428 5.123 86.886 9.464V88.437c-26.42-7.96-71.242-8.766-85.506-8.878-2.44-.026-4.31-1.92-2.845-5.16 4.357-9.753 10.65-18.95 20.287-26.41 11.216-8.67 25.17-14.42 40.406-17.12a93.502 93.502 0 0 1 27.658 38.278V2.893c-30.918 0-56.423 2.69-78.002 6.97 13.444 1.353 26.037 5.58 37.217 11.992-12.775 3.592-24.546 9.185-34.466 16.852-14.345 11.09-23.53 25.205-26.91 41.08-4.377.098-9.307.302-14.592.58 2.942-32.84 11.966-57.093 21.85-66.637a278.145 278.145 0 0 0-18.07 5.34c-8.293 15.73-13.578 38.353-15.616 62.093-3.062.23-6.154.506-9.264.844-2.513-15.598-9.74-29.34-20.89-39.718a93.385 93.385 0 0 1 6.387-6.735C115.53 51.625 93.68 67.59 60.806 67.59 19.827 67.59 0 50.123 0 50.123c25.31 123.06 109.79 134.07 166.218 134.716a94.236 94.236 0 0 1-30.242-27.46c16.924-17.02 27.41-39.994 27.242-63.62 2.43-.254 4.972-.52 7.6-.736a266.22 266.22 0 0 0-.21 10.294c0 29.868 5.203 60.824 15.143 81.477 2.004-.015 3.947-.026 5.808-.026 2.554 0 5.07.05 7.558.14-9.382-15.628-16.768-44.897-16.768-81.59 0-3.81.108-7.523.26-11.188a515.91 515.91 0 0 1 13.927-.554c-.404 15.743 4.98 31.257 15.76 45.24 14.177 18.333 35.995 31.665 61.248 38.018A94.238 94.238 0 0 1 245.03 191.5c34.253 8.706 55.116 22.766 55.116 22.766v-76.69A94.147 94.147 0 0 1 283.44 165zM134.247 51.75c7.31 7.1 12.524 16.02 15.218 26.11.687 3.06-.368 5.592-2.81 6.134-10.245 1.59-19.726 3.785-26.922 6.738 1.905-14.26 6.956-27.495 14.514-38.982zm-4.46 95.638c-6.883-12.946-10.836-27.665-10.95-43.31 3.26-2.46 13.228-5.775 29.772-8.39 2.36-.423 2.843.88 2.79 2.868-.58 18.082-8.807 35.403-21.614 48.832z"/></svg>
